<mxfile host="app.diagrams.net" modified="2022-04-28T03:06:34.552Z" agent="5.0 (Windows NT 10.0; Win64; x64) AppleWebKit/537.36 (KHTML, like Gecko) Chrome/100.0.4896.127 Safari/537.36 Edg/100.0.1185.50" etag="sxo7KeHRexX24TTI4Jt1" version="17.4.6" type="github">
  <diagram id="itXDM7xVuKAZh9ORiLuy" name="Page-1">
    <mxGraphModel dx="782" dy="1647" grid="1" gridSize="10" guides="1" tooltips="1" connect="1" arrows="1" fold="1" page="1" pageScale="1" pageWidth="827" pageHeight="1169" math="0" shadow="0">
      <root>
        <mxCell id="0" />
        <mxCell id="1" parent="0" />
        <mxCell id="Yp8vXP4M79q_ZlIKRfWr-1" value="开始验签" style="rounded=0;whiteSpace=wrap;html=1;" vertex="1" parent="1">
          <mxGeometry x="360" y="-240" width="80" height="40" as="geometry" />
        </mxCell>
      </root>
    </mxGraphModel>
  </diagram>
</mxfile>
